<?xml version="1.0" standalone="no"?>
<!DOCTYPE svg PUBLIC "-//W3C//DTD SVG 20010904//EN"
 "http://www.w3.org/TR/2001/REC-SVG-20010904/DTD/svg10.dtd">
<svg version="1.0" xmlns="http://www.w3.org/2000/svg"
 width="436.000000pt" height="105.000000pt" viewBox="0 0 436.000000 105.000000"
 preserveAspectRatio="xMidYMid meet">
<metadata>
Created by potrace 1.16, written by Peter Selinger 2001-2019
</metadata>
<g transform="translate(0.000000,105.000000) scale(0.100000,-0.100000)"
fill="#000000" stroke="none">
<path d="M500 862 l0 -129 -98 -5 c-84 -4 -106 -9 -151 -33 -29 -16 -66 -46
-82 -66 -54 -69 -63 -102 -63 -244 -1 -122 1 -133 26 -181 50 -94 141 -153
238 -154 78 0 122 15 181 61 88 70 105 134 108 402 1 44 4 57 16 57 13 0 15
-36 15 -260 l0 -260 80 0 80 0 0 260 c0 143 2 260 5 260 4 0 19 -7 35 -15 58
-30 60 -39 60 -282 l0 -223 80 0 81 0 -3 243 c-2 133 -7 251 -12 261 -9 17 -6
19 25 12 46 -9 80 -45 90 -97 5 -24 8 -114 8 -199 0 -85 0 -170 1 -187 l0 -33
75 0 75 0 0 229 c0 249 -3 269 -57 343 -39 54 -111 94 -185 104 l-48 7 0 -73
0 -74 -27 37 c-64 83 -102 98 -268 106 l-130 6 -2 125 -1 125 -76 3 -76 3 0
-129z m0 -411 c0 -140 -5 -169 -34 -206 -28 -35 -97 -45 -145 -20 -49 25 -64
71 -59 182 3 81 7 96 28 119 34 36 54 43 138 43 l72 1 0 -119z"/>
</g>
</svg>
